<?xml version="1.0" encoding="UTF-8" standalone="no"?>
<!-- Created with Inkscape (http://www.inkscape.org/) -->

<svg
   xmlns:dc="http://purl.org/dc/elements/1.1/"
   xmlns:cc="http://creativecommons.org/ns#"
   xmlns:rdf="http://www.w3.org/1999/02/22-rdf-syntax-ns#"
   xmlns:svg="http://www.w3.org/2000/svg"
   xmlns="http://www.w3.org/2000/svg"
   xmlns:xlink="http://www.w3.org/1999/xlink"
   xmlns:sodipodi="http://sodipodi.sourceforge.net/DTD/sodipodi-0.dtd"
   xmlns:inkscape="http://www.inkscape.org/namespaces/inkscape"
   id="svg2"
   version="1.1"
   inkscape:version="0.48.4 r9939"
   width="1700"
   height="1900"
   sodipodi:docname="@wikiatlas_shadedrelief_colors_explained.svg"
   inkscape:export-filename="/home/yug/Documents/Work/2014_India/@wikiatlas_shadedrelief_colors_explained.png"
   inkscape:export-xdpi="45.473682"
   inkscape:export-ydpi="45.473682">
  <metadata
     id="metadata8">
    <rdf:RDF>
      <cc:Work
         rdf:about="">
        <dc:format>image/svg+xml</dc:format>
        <dc:type
           rdf:resource="http://purl.org/dc/dcmitype/StillImage" />
        <dc:title></dc:title>
      </cc:Work>
    </rdf:RDF>
  </metadata>
  <defs
     id="defs6">
    <pattern
       inkscape:collect="always"
       xlink:href="#Checkerboardwhite"
       id="pattern6669"
       patternTransform="matrix(34.972142,0,0,46.141825,8.9258775,4.739942)" />
    <pattern
       inkscape:stockid="Checkerboard white"
       id="Checkerboardwhite"
       patternTransform="translate(0,0) scale(10,10)"
       height="2"
       width="2"
       patternUnits="userSpaceOnUse"
       inkscape:collect="always">
      <rect
         id="rect6018"
         height="1"
         width="1"
         y="0"
         x="0"
         style="fill:white;stroke:none" />
      <rect
         id="rect6020"
         height="1"
         width="1"
         y="1"
         x="1"
         style="fill:white;stroke:none" />
    </pattern>
    <marker
       inkscape:stockid="Arrow2Mend"
       orient="auto"
       refY="0"
       refX="0"
       id="Arrow2Mend"
       style="overflow:visible">
      <path
         id="path4404"
         style="fill-rule:evenodd;stroke-width:0.625;stroke-linejoin:round"
         d="M 8.7185878,4.0337352 -2.2072895,0.01601326 8.7185884,-4.0017078 C 6.97309,-1.6296469 6.9831476,1.6157441 8.7185878,4.0337352 z"
         transform="scale(-0.6,-0.6)"
         inkscape:connector-curvature="0" />
    </marker>
    <marker
       inkscape:stockid="Arrow1Send"
       orient="auto"
       refY="0"
       refX="0"
       id="Arrow1Send"
       style="overflow:visible">
      <path
         id="path4392"
         d="M 0,0 5,-5 -12.5,0 5,5 0,0 z"
         style="fill-rule:evenodd;stroke:#000000;stroke-width:1pt"
         transform="matrix(-0.2,0,0,-0.2,-1.2,0)"
         inkscape:connector-curvature="0" />
    </marker>
    <linearGradient
       id="linearGradient3946">
      <stop
         style="stop-color:#000000;stop-opacity:1;"
         offset="0"
         id="stop3948" />
      <stop
         style="stop-color:#000000;stop-opacity:0;"
         offset="1"
         id="stop3950" />
    </linearGradient>
    <linearGradient
       inkscape:collect="always"
       xlink:href="#linearGradient3946"
       id="linearGradient3952"
       x1="266.66666"
       y1="-321.9559"
       x2="448.24902"
       y2="-319.88068"
       gradientUnits="userSpaceOnUse" />
    <linearGradient
       inkscape:collect="always"
       xlink:href="#linearGradient3946-0"
       id="linearGradient3952-9"
       x1="266.66666"
       y1="-321.9559"
       x2="448.24902"
       y2="-319.88068"
       gradientUnits="userSpaceOnUse" />
    <linearGradient
       id="linearGradient3946-0">
      <stop
         style="stop-color:#000000;stop-opacity:1;"
         offset="0"
         id="stop3948-5" />
      <stop
         style="stop-color:#000000;stop-opacity:0;"
         offset="1"
         id="stop3950-5" />
    </linearGradient>
    <linearGradient
       y2="-319.88068"
       x2="448.24902"
       y1="-321.9559"
       x1="266.66666"
       gradientUnits="userSpaceOnUse"
       id="linearGradient3980"
       xlink:href="#linearGradient3946-0"
       inkscape:collect="always" />
    <linearGradient
       y2="-319.88068"
       x2="448.24902"
       y1="-321.9559"
       x1="266.66666"
       gradientUnits="userSpaceOnUse"
       id="linearGradient3980-6"
       xlink:href="#linearGradient3946-0-7"
       inkscape:collect="always" />
    <linearGradient
       id="linearGradient3946-0-7">
      <stop
         style="stop-color:#000000;stop-opacity:1;"
         offset="0"
         id="stop3948-5-9" />
      <stop
         style="stop-color:#000000;stop-opacity:0;"
         offset="1"
         id="stop3950-5-6" />
    </linearGradient>
    <linearGradient
       y2="-319.88068"
       x2="448.24902"
       y1="-321.9559"
       x1="266.66666"
       gradientUnits="userSpaceOnUse"
       id="linearGradient4014"
       xlink:href="#linearGradient3946-0-7"
       inkscape:collect="always" />
  </defs>
  <sodipodi:namedview
     pagecolor="#ffffff"
     bordercolor="#666666"
     borderopacity="1"
     objecttolerance="10"
     gridtolerance="10"
     guidetolerance="10"
     inkscape:pageopacity="0"
     inkscape:pageshadow="2"
     inkscape:window-width="971"
     inkscape:window-height="744"
     id="namedview4"
     showgrid="false"
     fit-margin-top="0"
     fit-margin-left="0"
     fit-margin-right="0"
     fit-margin-bottom="0"
     showguides="true"
     inkscape:guide-bbox="true"
     inkscape:zoom="0.18470107"
     inkscape:cx="920.98117"
     inkscape:cy="2476.2394"
     inkscape:window-x="53"
     inkscape:window-y="24"
     inkscape:window-maximized="1"
     inkscape:current-layer="svg2" />
  <rect
     y="4.2840171"
     x="4.2804928"
     height="1891.4586"
     width="1691.4586"
     id="rect6667"
     style="opacity:0.22245424;fill:#aaaaaa;fill-opacity:1;stroke:#336699;stroke-width:8.54139423;stroke-linecap:round;stroke-linejoin:round;stroke-miterlimit:4;stroke-opacity:1;stroke-dasharray:none;stroke-dashoffset:0" />
  <rect
     style="fill:url(#pattern6669);fill-opacity:1;stroke:#336699;stroke-width:8.54139423;stroke-linecap:round;stroke-linejoin:round;stroke-miterlimit:4;stroke-opacity:1;stroke-dasharray:none;stroke-dashoffset:0"
     id="rect5217"
     width="1691.4586"
     height="1891.4586"
     x="4.2804928"
     y="4.2839932" />
  <g
     id="g4353"
     transform="translate(829.21876,210.60387)">
    <image
       y="1076.7572"
       x="0"
       id="image10"
       xlink:href="file:///home/yug/Desktop/QGis/Wikiatlas/back/01_shaded_relief/hill-relief-c.tiff"
       height="531.64557"
       width="800" />
    <image
       width="800"
       height="532"
       xlink:href="file:///home/yug/Desktop/QGis/Wikiatlas/back/01_shaded_relief/France.shadedrelief.trans.png"
       id="image3065"
       x="0"
       y="1076.58" />
  </g>
  <image
     y="755.53827"
     x="829.21875"
     id="image3943"
     xlink:href="file:///home/yug/Desktop/QGis/Wikiatlas/back/01_shaded_relief/hill-relief-merged-c.tiff"
     height="531.64557"
     width="800"
     style="fill:url(#linearGradient4014);fill-opacity:1" />
  <image
     width="800"
     height="531.64557"
     xlink:href="file:///home/yug/Desktop/QGis/Wikiatlas/back/01_shaded_relief/hill-relief-c.tiff"
     id="image10-2"
     x="829.21875"
     y="221.72128" />
  <image
     width="800"
     height="532"
     xlink:href="file:///home/yug/Desktop/QGis/Wikiatlas/back/01_shaded_relief/France.shadedrelief.trans.png"
     id="image4271"
     x="29.218761"
     y="1287.1838" />
  <image
     y="755.53827"
     x="29.218761"
     id="image4350"
     xlink:href="file:///home/yug/Desktop/QGis/Wikiatlas/back/01_shaded_relief/shadedrelief.tif"
     height="531.64557"
     width="800" />
  <path
     style="fill:none;stroke:#666666;stroke-width:10;stroke-linecap:round;stroke-linejoin:miter;stroke-miterlimit:4;stroke-opacity:1;stroke-dasharray:none;stroke-dashoffset:0"
     d="M 78.367582,205.92165 829.21876,750.16277"
     id="path4357"
     inkscape:connector-curvature="0"
     sodipodi:nodetypes="cc" />
  <text
     xml:space="preserve"
     style="font-size:48px;font-style:oblique;font-variant:normal;font-weight:bold;font-stretch:normal;text-align:end;text-anchor:end;fill:#015a01;fill-opacity:1;stroke:none;font-family:Purisa;-inkscape-font-specification:Purisa Bold Oblique"
     x="456.31277"
     y="588.90613"
     id="text4359"><tspan
       sodipodi:role="line"
       id="tspan4363"
       x="456.31277"
       y="588.90613"
       style="font-size:72px;fill:#000000">Hillshades</tspan></text>
  <text
     id="text4367"
     y="342.07803"
     x="788.85651"
     style="font-size:48px;font-style:oblique;font-variant:normal;font-weight:bold;font-stretch:normal;text-align:end;text-anchor:end;fill:#015a01;fill-opacity:1;stroke:none;font-family:Purisa;-inkscape-font-specification:Purisa Bold Oblique"
     xml:space="preserve"><tspan
       style="font-size:72px;fill:#000000"
       y="342.07803"
       x="788.85651"
       id="tspan4369"
       sodipodi:role="line">Topography</tspan></text>
  <path
     style="fill:none;stroke:#000000;stroke-width:10;stroke-miterlimit:4;stroke-opacity:1;stroke-dasharray:none;marker-end:url(#Arrow1Send)"
     d="M 596.33583,363.67539 C 642.01397,641.65075 827.43013,488.40283 723.08132,448.40169 638.71132,416.05924 672.28219,602.496 806.82546,556.48921"
     id="path4371"
     inkscape:connector-curvature="0"
     sodipodi:nodetypes="csc" />
  <path
     style="fill:none;stroke:#000000;stroke-width:10;stroke-linecap:round;stroke-linejoin:round;stroke-miterlimit:4;stroke-opacity:1;stroke-dasharray:none;stroke-dashoffset:0;marker-end:url(#Arrow1Send)"
     d="M 481.50916,578.8276 C 530.0677,579.65312 582.99754,641.52614 577.25528,740.08423"
     id="path4819"
     inkscape:connector-curvature="0"
     sodipodi:nodetypes="cc" />
  <text
     xml:space="preserve"
     style="font-size:72px;font-style:oblique;font-variant:normal;font-weight:bold;font-stretch:normal;text-align:end;text-anchor:end;fill:#eeeeee;fill-opacity:1;stroke:#000000;stroke-width:6;stroke-linecap:round;stroke-linejoin:round;stroke-miterlimit:4;stroke-opacity:1;stroke-dasharray:none;stroke-dashoffset:0;font-family:Purisa;-inkscape-font-specification:Purisa Bold Oblique"
     x="1614.0447"
     y="724.96643"
     id="text5191"><tspan
       sodipodi:role="line"
       id="tspan5193"
       x="1614.0447"
       y="724.96643"
       style="font-size:50px;fill:#eeeeee;stroke:#000000;stroke-width:6;stroke-miterlimit:4;stroke-opacity:1;stroke-dasharray:none">$gdaldem color-relief</tspan></text>
  <text
     xml:space="preserve"
     style="font-size:72px;font-style:oblique;font-variant:normal;font-weight:bold;font-stretch:normal;text-align:end;text-anchor:end;fill:#ffffff;fill-opacity:1;stroke:#015a01;stroke-width:6;stroke-linecap:round;stroke-linejoin:round;stroke-miterlimit:4;stroke-opacity:1;stroke-dasharray:none;stroke-dashoffset:0;font-family:Purisa;-inkscape-font-specification:Purisa Bold Oblique"
     x="1620.4321"
     y="1771.4119"
     id="text5199"><tspan
       sodipodi:role="line"
       id="tspan5201"
       x="1620.4321"
       y="1771.4119"
       style="font-size:50px;fill:#ffffff;stroke:#015a01;stroke-width:6;stroke-miterlimit:4;stroke-opacity:1;stroke-dasharray:none;fill-opacity:1">color_relief+alpha hillshade</tspan></text>
  <text
     xml:space="preserve"
     style="font-size:72px;font-style:oblique;font-variant:normal;font-weight:bold;font-stretch:normal;text-align:end;text-anchor:end;fill:#eeeeee;fill-opacity:1;stroke:#000000;stroke-width:6;stroke-linecap:round;stroke-linejoin:round;stroke-miterlimit:4;stroke-opacity:1;stroke-dasharray:none;stroke-dashoffset:0;font-family:Purisa;-inkscape-font-specification:Purisa Bold Oblique"
     x="786.30896"
     y="1236.8147"
     id="text5203"><tspan
       sodipodi:role="line"
       id="tspan5205"
       x="786.30896"
       y="1236.8147"
       style="font-size:50px;fill:#eeeeee;stroke:#000000;stroke-width:6;stroke-miterlimit:4;stroke-opacity:1;stroke-dasharray:none">grey hillshade</tspan></text>
  <text
     id="text5207"
     y="1771.4119"
     x="824.22363"
     style="font-size:72px;font-style:oblique;font-variant:normal;font-weight:bold;font-stretch:normal;text-align:end;text-anchor:end;fill:#888888;fill-opacity:1;stroke:#000000;stroke-width:6;stroke-linecap:round;stroke-linejoin:round;stroke-miterlimit:4;stroke-opacity:1;stroke-dasharray:none;stroke-dashoffset:0;font-family:Purisa;-inkscape-font-specification:Purisa Bold Oblique"
     xml:space="preserve"><tspan
       style="font-size:50px;fill:#888888;stroke:#000000;stroke-width:6;stroke-miterlimit:4;stroke-opacity:1;stroke-dasharray:none"
       y="1771.4119"
       x="824.22363"
       id="tspan5209"
       sodipodi:role="line">alpha hillshade</tspan></text>
  <text
     xml:space="preserve"
     style="font-size:50px;font-style:oblique;font-variant:normal;font-weight:bold;font-stretch:normal;text-align:end;text-anchor:end;fill:#000000;fill-opacity:1;stroke:#888888;stroke-width:10;stroke-linecap:round;stroke-linejoin:round;stroke-miterlimit:4;stroke-opacity:1;stroke-dasharray:none;stroke-dashoffset:0;font-family:Purisa;-inkscape-font-specification:Purisa Bold Oblique"
     x="1615.3619"
     y="136.66183"
     id="text5211"><tspan
       sodipodi:role="line"
       id="tspan5213"
       x="1615.3619"
       y="136.66183"
       style="font-size:100px;font-style:italic;font-variant:normal;font-weight:normal;font-stretch:normal;fill:#336699;stroke:#336699;font-family:TakaoPGothic;-inkscape-font-specification:TakaoPGothic Italic">Wikimaps Atlas &gt; Shaded reliefs</tspan></text>
  <text
     id="text5195"
     y="1236.8147"
     x="1620.4321"
     style="font-size:72px;font-style:oblique;font-variant:normal;font-weight:bold;font-stretch:normal;text-align:end;text-anchor:end;fill:#000000;fill-opacity:1;stroke:#980101;stroke-width:6;stroke-linecap:round;stroke-linejoin:round;stroke-miterlimit:4;stroke-opacity:0.44292238;stroke-dasharray:none;stroke-dashoffset:0;font-family:Purisa;-inkscape-font-specification:Purisa Bold Oblique"
     xml:space="preserve"><tspan
       style="font-size:50px;fill:#000000;stroke:#980101;stroke-width:6;stroke-miterlimit:4;stroke-opacity:0.44292238;stroke-dasharray:none"
       y="1236.8147"
       x="1620.4321"
       id="tspan5197"
       sodipodi:role="line">color_relief+grey hillshade</tspan></text>
  <image
     width="800"
     height="531.64557"
     xlink:href="file:///home/yug/Desktop/QGis/Wikiatlas/back/01_shaded_relief/hill-relief-c.tiff"
     id="image10-4"
     x="2575.7136"
     y="684.17725"
     inkscape:export-filename="/home/yug/Desktop/QGis/Wikiatlas/back/01_shaded_relief/France.shadedrelief-c2.png"
     inkscape:export-xdpi="90"
     inkscape:export-ydpi="90" />
  <image
     y="684"
     x="2575.7136"
     id="image3065-7"
     xlink:href="file:///home/yug/Desktop/QGis/Wikiatlas/back/01_shaded_relief/France.shadedrelief.trans.png"
     height="532"
     width="800"
     inkscape:export-filename="/home/yug/Desktop/QGis/Wikiatlas/back/01_shaded_relief/France.shadedrelief-c2.png"
     inkscape:export-xdpi="90"
     inkscape:export-ydpi="90" />
  <text
     xml:space="preserve"
     style="font-size:72px;font-style:oblique;font-variant:normal;font-weight:bold;font-stretch:normal;text-align:end;text-anchor:end;fill:#ffffff;fill-opacity:1;stroke:#015a01;stroke-width:6;stroke-linecap:round;stroke-linejoin:round;stroke-miterlimit:4;stroke-opacity:1;stroke-dasharray:none;stroke-dashoffset:0;font-family:Purisa;-inkscape-font-specification:Purisa Bold Oblique"
     x="3362.2285"
     y="1285.344"
     id="text5199-5"
     inkscape:export-filename="/home/yug/Desktop/QGis/Wikiatlas/back/01_shaded_relief/France.shadedrelief-c2.png"
     inkscape:export-xdpi="90"
     inkscape:export-ydpi="90"><tspan
       sodipodi:role="line"
       id="tspan5201-4"
       x="3362.2285"
       y="1285.344"
       style="font-size:50px;fill:#ffffff;fill-opacity:1;stroke:#015a01;stroke-width:6;stroke-miterlimit:4;stroke-opacity:1;stroke-dasharray:none">color_relief+alpha hillshade</tspan></text>
  <path
     style="opacity:0.78754578;fill:#339900;fill-opacity:1;stroke:none"
     id="path6891"
     d="M 1511.0255,1367.0784 C 1511.4148,1370.0952 1510.771,1366.6567 1513.4086,1366.9304 1514.3089,1367.024 1511.8555,1373.7548 1513.7464,1372.0618 1514.5098,1371.3783 1515.0528,1369.9836 1515.706,1368.9446 1517.1196,1377.8608 1514.8274,1366.688 1517.7197,1371.4387 1518.1315,1372.1151 1517.4074,1374.0465 1517.862,1374.6053 1519.7628,1376.942 1520.3173,1368.8657 1521.0857,1377.8069 1521.8138,1378.7836 1522.8651,1377.5674 1523.5654,1378.4643 1523.8838,1378.8722 1523.4965,1380.2961 1523.8293,1380.6563 1524.3181,1381.1853 1525.2315,1379.5906 1525.4994,1380.5578 1526.8397,1385.3946 1522.3018,1385.8942 1527.0871,1383.9846 1527.7666,1386.8962 1529.3781,1383.9503 1530.2485,1385.1942 1530.7221,1385.8709 1530.2561,1387.6009 1530.5346,1388.6174 1531.175,1390.9546 1533.078,1391.8327 1534.238,1392.2171 1536.277,1392.2667 1535.3955,1396.2738 1536.5078,1397.939 1536.9307,1398.5719 1537.6652,1397.5899 1538.0921,1398.2123 1539.743,1400.6194 1536.1042,1402.5903 1539.9651,1399.1635 1538.6403,1407.1315 1539.5743,1398.8071 1540.8742,1401.2335 1541.2125,1401.8649 1540.1188,1402.9035 1540.3006,1403.751 1541.0197,1407.1041 1542.4079,1399.3672 1541.8731,1405.2509 1542.4559,1404.2144 1543.2499,1403.5074 1543.6214,1402.1416 1545.2549,1396.1356 1539.7008,1409.1178 1541.9778,1405.3656 1545.4294,1399.6783 1537.3545,1400.9924 1539.7352,1402.201 1539.5541,1399.7217 1541.33,1400.916 1541.5318,1400.4222 1541.8084,1399.7457 1541.2066,1397.7431 1541.6443,1397.8203 1544.525,1398.3288 1544.0293,1405.7899 1543.7974,1395.8916 1544.279,1396.2418 1547.7358,1399.8118 1548.6514,1397.1036 1551.2165,1389.5162 1546.1194,1392.943 1550.4036,1388.0081 1551.1889,1387.1036 1552.1675,1387.1081 1553.0124,1386.4469 1553.888,1385.7615 1554.7029,1384.8035 1555.5482,1383.9818 1558.4911,1380.0367 1561.8721,1377.354 1564.6632,1372.9422 1565.7181,1371.275 1566.5408,1369.0806 1567.5954,1367.4129 1576.486,1353.3536 1565.8333,1372.6551 1574.404,1356.5829 1578.6307,1353.1108 1582.1757,1345.3157 1586.2296,1341.4855 1587.7524,1340.0468 1589.5392,1339.9407 1591.0613,1338.4988 1602.6305,1327.5396 1586.746,1338.3665 1599.2478,1330.5938 1603.6549,1326.8141 1607.4912,1321.3382 1611.5719,1316.47 1612.4439,1315.0499 1622.5827,1339.4797 1621.7106,1340.8998 L 1621.7106,1340.8998 C 1620.8101,1341.8615 1620.0101,1343.3674 1619.0089,1343.7849 1617.6032,1344.3711 1615.9554,1342.442 1614.6996,1343.8235 1612.446,1346.3026 1613.5591,1356.303 1609.2002,1354.593 1607.9999,1356.1765 1606.7284,1357.5667 1605.5992,1359.3437 1604.4594,1361.1373 1603.809,1364.4256 1602.4168,1365.2676 1600.4679,1366.4463 1598.0636,1362.9228 1596.3057,1364.9641 1594.8118,1366.6989 1595.5605,1371.9709 1594.4206,1374.5531 1594.2748,1374.8833 1586.2667,1382.5475 1586.0534,1382.753 1580.2905,1394.6574 1586.6123,1384.3086 1577.8322,1389.4168 1570.5003,1393.6826 1577.9419,1393.2118 1571.9008,1399.3169 1566.0533,1405.2264 1568.6831,1394.073 1566.9017,1407.3216 1563.2564,1411.691 1565.2511,1410.255 1560.8885,1411.4671 1560.1544,1412.2094 1559.9208,1414.1112 1559.4134,1415.3979 1557.7502,1419.6153 1556.4745,1421.0154 1553.7187,1421.2391 1551.9163,1422.3912 1551.9085,1421.8401 1550.6738,1424.8076 1550.2696,1425.7789 1550.2405,1427.6057 1549.6323,1427.9705 1547.1223,1429.4757 1546.746,1421.3409 1545.2869,1430.0228 1544.7473,1429.2887 1544.3227,1427.8289 1543.6681,1427.8206 1541.9461,1427.7986 1540.3135,1429.39 1538.6138,1429.9376 1538.2747,1430.0468 1537.8672,1430.1713 1537.5862,1429.7796 1537.1466,1429.1668 1537.0785,1427.8117 1536.6422,1427.1895 1535.6989,1425.8442 1535.0788,1426.0465 1534.1177,1426.0672 1530.807,1425.9223 1533.552,1417.6929 1529.1574,1420.8294 1527.9881,1414.8964 1527.5344,1420.9349 1526.4865,1418.2734 1526.3003,1417.8006 1526.5832,1416.97 1526.4078,1416.4812 1524.8418,1412.1173 1525.3371,1419.9515 1525.4244,1411.2232 1524.7671,1411.1977 1524.1099,1411.1516 1523.4524,1411.1468 1522.8794,1411.1425 1522.2055,1411.8396 1521.7336,1411.1956 1521.3362,1410.6532 1521.7509,1409.1092 1521.4328,1408.3901 1520.2774,1405.7775 1518.2378,1409.9776 1518.2561,1404.6322 1514.0725,1405.1004 1518.7267,1405.3691 1515.595,1402.9638 1515.184,1402.6482 1514.6581,1403.4534 1514.2731,1403.0283 1513.917,1402.6354 1514.0661,1401.2645 1513.7075,1400.8805 1513.4071,1400.5589 1512.9316,1401.8738 1512.7117,1401.3565 1512.3444,1400.4927 1512.5589,1399.1184 1512.4825,1397.9992 1511.9808,1398.2207 1511.4857,1398.8139 1510.9774,1398.6634 1510.6652,1398.5709 1510.5896,1397.6003 1510.2997,1397.3528 1509.9897,1397.0881 1509.5372,1397.6754 1509.2891,1397.2219 1508.9824,1396.6613 1509.1558,1395.5408 1508.9289,1394.8471 1506.6829,1387.9801 1509.4622,1399.7819 1507.6843,1391.6669 1504.0503,1396.0882 1505.2868,1396.7618 1504.8955,1392.4835 1504.7902,1391.3319 1504.2658,1390.4263 1504.59,1389.0934 1504.723,1388.547 1507.4022,1388.8296 1504.1692,1390.711 1503.3256,1389.7507 1510.1819,1366.1181 1511.0255,1367.0784 z"
     inkscape:connector-curvature="0" />
  <g
     id="g6905"
     style="fill:#980101"
     transform="matrix(0.90620929,0,0,0.90620929,162.38626,67.53828)">
    <path
       inkscape:connector-curvature="0"
       d="M 1520.0745,786.7765 C 1521.1712,786.93731 1522.4234,786.67354 1523.3647,787.2589 1523.7517,787.49955 1522.857,788.11009 1522.9397,788.55824 1523.0819,789.33003 1523.3921,790.15861 1523.9925,790.66412 1525.7153,792.11484 1530.0357,792.225 1532.17,792.95216 1532.1123,796.77576 1534.0647,797.16885 1536.2717,799.5904 1540.2533,803.95907 1539.289,804.23309 1545.6094,805.57888 1545.4406,807.21893 1544.2124,809.11145 1545.1029,810.49903 1545.9444,811.8103 1548.2495,811.0047 1549.5953,811.7899 1556.1344,815.60527 1548.8935,813.40646 1553.5248,818.11511 1563.777,828.53876 1551.4606,810.54086 1559.6759,823.517 1560.5794,824.35547 1561.2199,825.63377 1562.3863,826.03241 1564.2859,826.68169 1566.7289,825.36995 1568.391,826.49574 1569.4854,827.23696 1568.4179,829.19248 1568.8802,830.43076 1569.2663,831.46477 1570.3454,832.11001 1570.8531,833.09003 1574.6188,840.3585 1569.5874,833.60661 1574.23,839.30287 1583.3584,841.39767 1577.4364,841.12116 1579.3404,844.66627 1579.8337,845.58489 1581.1069,846.07939 1582.149,846.0435 1583.9572,845.98123 1585.702,843.58034 1587.3192,844.3915 1588.4599,844.9636 1586.4862,846.80381 1586.0696,848.00997 1589.4504,847.58149 1587.7751,847.12838 1590.1875,849.64525 1590.718,850.19879 1591.5024,850.5551 1591.8432,851.24194 1593.3712,854.32126 1590.9438,854.49133 1595.663,855.22276 1594.9194,856.47737 1592.9392,857.61415 1593.4323,858.98662 1596.0552,866.28596 1597.1131,854.85392 1599.4222,858.59301 1599.894,859.35695 1597.5418,860.38771 1598.2031,860.995 1601.5487,864.06703 1602.0933,854.22906 1600.5469,863.62687 1599.0321,866.97581 1604.9007,863.63463 1605.7954,866.4922 1606.7227,869.45385 1602.5914,869.86959 1605.5251,869.35832 1607.3337,869.62853 1606.4106,871.6521 1607.2905,872.44726 1607.5653,872.69559 1608.0227,872.26647 1608.3916,872.29861 1612.3952,872.6474 1612.4666,870.20757 1609.4598,876.68598 1617.4777,873.78242 1617.736,872.99732 1611.85,877.34562 1612.8755,878.66618 1594.2,893.16953 1593.1744,891.84897 L 1593.1744,891.84897 C 1590.1251,891.32759 1591.4309,891.40174 1589.2771,891.39401 1593.4849,887.30359 1592.2561,889.64829 1589.4623,888.92044 1588.8397,888.75823 1588.4019,888.18515 1587.8301,887.8901 1584.7531,886.30224 1585.0124,886.67367 1586.2497,883.68928 1584.9777,883.68405 1583.6966,883.5231 1582.4334,883.6736 1581.6141,883.7712 1580.8707,884.64326 1580.075,884.42491 1579.5604,884.28367 1581.4255,883.86122 1581.2639,883.35262 1581.0848,882.78923 1579.7481,883.39462 1579.5687,882.83135 1577.3926,875.99866 1583.0313,883.41469 1578.9551,878.65661 1578.4341,878.35114 1578.418,877.48915 1577.8948,877.18729 1575.745,875.94679 1575.6497,877.89887 1574.0768,875.53556 1573.9358,875.32376 1574.5968,875.06323 1574.439,874.8637 1574.1172,874.45712 1573.4981,874.42778 1573.0277,874.20981 1567.3034,872.94299 1573.9478,871.12388 1571.4442,868.8863 1570.8755,868.37803 1565.8875,868.8338 1565.2743,865.5115 1564.7981,864.86938 1564.1954,864.30406 1563.8458,863.58513 1563.4308,862.73173 1563.9505,861.01379 1563.0137,860.86259 1561.1944,860.56895 1559.2958,863.63223 1557.7665,862.60393 1556.4845,861.74189 1559.648,859.48733 1558.9323,858.11822 1558.7246,857.72103 1551.6894,856.76025 1551.2465,856.69433 1543.1067,849.1943 1555.6538,861.67356 1548.9967,851.15903 1547.7427,849.17851 1542.8958,848.6085 1540.3246,844.00752 1539.6411,842.78444 1539.1077,841.48332 1538.4993,840.22123 1536.375,840.37988 1533.7276,842.10223 1532.1266,840.69718 1530.6918,839.43808 1533.2329,836.76066 1532.5325,834.98493 1530.7498,830.46548 1527.0519,834.066 1524.6093,830.74706 1523.7229,829.54261 1524.9681,827.62411 1524.3355,826.26901 1523.82,825.16467 1522.4205,824.76098 1521.463,824.00696 1520.568,823.30342 1519.2493,822.93257 1518.7779,821.89632 1518.411,821.08965 1519.4946,816.20006 1517.6305,815.36068 1511.8592,812.76201 1514.3287,818.26037 1508.3142,811.12771 1508.0016,810.98149 1503.3832,807.95673 1503.357,807.73824 1503.3554,807.72514 1506.5893,803.20333 1502.9349,804.66659 1502.021,805.03252 1501.8436,806.30532 1501.298,807.12469 1499.8591,805.79698 1518.6357,785.4488 1520.0745,786.7765 z"
       id="path6901"
       style="opacity:0.78754578;fill:#980101;fill-opacity:1;stroke:none" />
    <path
       inkscape:connector-curvature="0"
       d="M 1504.9203,885.93979 C 1504.0129,885.3097 1499.8079,882.72145 1500.5524,881.30509 1501.1616,880.1462 1503.3991,882.25879 1504.4747,881.51237 1505.1946,881.01283 1503.9834,879.80842 1503.9718,878.93228 1503.9592,877.98367 1505.2445,875.50352 1505.4952,874.95515 1509.3776,870.40938 1506.4563,874.87332 1507.5497,869.85953 1507.7696,868.85124 1508.6081,868.02797 1508.7503,867.00581 1508.9325,865.69507 1507.5364,863.95338 1508.4976,863.04378 1521.9881,850.27742 1509.0397,870.7915 1516.1232,858.5471 1525.8904,856.10177 1520.6135,851.97311 1522.9114,848.92956 1523.8492,847.68741 1526.3489,848.31658 1527.1571,846.98648 1527.9081,845.75062 1526.5227,844.10403 1526.7147,842.67068 1526.8879,841.37675 1527.7177,840.26009 1528.2192,839.05479 1531.5893,838.57065 1536.8431,838.37764 1538.459,834.47982 1540.2839,830.07798 1536.4449,832.39872 1542.1059,827.41931 1542.7402,827.06997 1543.8877,827.08524 1544.0089,826.37128 1544.1903,825.3032 1542.2212,824.2743 1542.796,823.35595 1543.4799,822.26324 1545.3737,822.91751 1546.5287,822.34506 1548.7182,821.25986 1549.4595,818.34686 1550.0706,816.2668 1552.3948,815.79257 1552.4529,812.90988 1553.7556,811.71523 1554.3032,811.21313 1555.3026,811.4331 1555.8361,810.9162 1558.9466,807.90292 1553.188,809.97444 1558.3985,808.645 1557.9526,804.52127 1558.6426,805.81892 1561.2933,804.53879 1561.8213,804.28381 1562.061,803.63272 1562.5474,803.30522 1564.0253,802.31005 1565.8242,802.20633 1567.5079,801.87316 1567.7362,801.16284 1568.1244,800.48517 1568.1928,799.74221 1568.2769,798.82954 1567.5314,797.81458 1567.9568,797.00276 1568.9833,795.04394 1574.5092,797.81296 1574.3992,792.82167 1575.6254,788.4229 1572.9486,796.33938 1579.7222,794.11792 1581.0248,793.6907 1577.7727,791.87143 1577.7654,790.50055 1577.762,789.84325 1579.2203,790.57228 1579.7011,790.12412 1580.0131,789.83333 1580.0596,786.96831 1580.0727,786.66064 1585.4036,783.17614 1575.679,789.23467 1583.0744,785.93264 1583.413,785.78148 1583.1206,784.86072 1583.4892,784.90051 1584.6664,785.02756 1585.9008,787.1622 1586.7415,786.32845 1588.6008,784.48441 1580.9237,782.29555 1586.8654,784.33573 1586.5413,784.47125 1585.7579,784.41824 1585.8933,784.74227 1588.3687,790.66329 1586.7827,777.20374 1584.0399,786.31793 1583.0929,789.46476 1590.6347,786.979 1582.9947,788.66272 1583.2874,788.77124 1583.58,788.87976 1583.8726,788.98828 1583.7532,786.96216 1612.4068,785.27336 1612.5262,787.29948 L 1612.5262,787.29948 C 1613.5264,787.71976 1614.5265,788.14004 1615.5266,788.56032 1600.2503,793.73577 1616.88,786.43099 1613.534,793.39445 1612.7094,795.1105 1609.2395,793.75191 1608.1558,795.31729 1607.5077,796.25344 1610.4443,796.70684 1610.4527,797.8454 1610.4639,799.35483 1605.0573,797.05101 1607.0503,800.83372 1606.995,801.7685 1608.6724,803.23317 1607.7891,803.54408 1606.8455,803.87622 1605.9793,802.50309 1604.979,802.49057 1604.6078,802.48592 1604.886,803.48198 1604.5153,803.5031 1601.1223,803.69647 1599.7194,799.7548 1604.0337,806.3949 1597.1575,805.91925 1601.3241,807.0405 1599.3875,808.87822 1598.8039,809.43215 1597.6738,808.88925 1597.0223,809.36162 1593.5798,811.85774 1601.9156,812.64654 1592.1147,809.96665 1592.6935,811.74332 1593.9809,813.43258 1593.8512,815.29666 1593.8025,815.99585 1592.3806,814.78805 1591.757,815.1079 1591.3546,815.31425 1592.0451,816.43176 1591.5934,816.45454 1588.3605,816.61766 1585.5979,813.03017 1585.1213,815.28361 1584.8508,816.5623 1586.3992,817.56389 1587.0382,818.70403 1587.2412,821.25087 1584.872,819.82947 1583.4905,821.25278 1582.1837,822.59906 1583.5007,824.98259 1580.5705,825.13345 1579.4913,829.62603 1574.7976,828.08195 1574.3885,829.14074 1574.0233,830.0862 1575.2459,831.0127 1575.37,832.01863 1575.4544,832.70261 1575.1196,833.37401 1574.9944,834.05171 1571.183,835.47024 1573.1663,836.85239 1571.1923,838.04463 1568.0911,839.91766 1564.9994,836.96024 1565.5763,843.16038 1563.2311,845.24402 1563.5415,844.55113 1562.1756,847.52916 1561.7183,848.52643 1561.8463,849.93283 1560.9687,850.59137 1558.5032,852.44161 1553.9295,849.73988 1552.0338,855.76553 1551.1367,856.39241 1549.3803,856.55234 1549.3423,857.64616 1549.2636,859.90907 1554.5893,864.32923 1549.6709,865.93279 1547.7103,866.57203 1545.3649,865.50228 1543.5007,866.38413 1541.5451,867.30922 1543.412,871.67184 1541.4014,872.52531 1541.0407,872.66523 1535.2483,874.38727 1535.3103,876.09129 1535.3691,877.70534 1538.0015,878.61993 1537.8357,880.22652 1537.7187,881.36007 1535.6638,881.00611 1534.735,881.66644 1533.2824,882.69927 1532.6034,884.0794 1531.7377,885.52046 1530.3627,885.65853 1528.2258,884.69619 1527.6127,885.93467 1527.0262,887.11982 1529.3388,887.9688 1529.944,889.14457 1530.1261,889.49849 1529.7882,889.94929 1529.8786,890.33693 1530.0496,891.07026 1531.1813,891.84793 1530.7118,892.43668 1530.2841,892.97314 1529.1745,891.1376 1528.788,891.70453 1528.4106,892.25817 1529.8226,892.55636 1530.3399,892.98227 1529.8419,894.77971 1504.4223,887.73723 1504.9203,885.93979 z"
       id="path6903"
       style="opacity:0.78754578;fill:#980101;fill-opacity:1;stroke:none" />
  </g>
  <path
     inkscape:connector-curvature="0"
     d="M 688.07412,1367.0784 C 688.46342,1370.0952 687.81962,1366.6567 690.45722,1366.9304 691.35752,1367.024 688.90412,1373.7548 690.79502,1372.0618 691.55842,1371.3783 692.10142,1369.9836 692.75462,1368.9446 694.16822,1377.8608 691.87602,1366.688 694.76832,1371.4387 695.18012,1372.1151 694.45602,1374.0465 694.91062,1374.6053 696.81142,1376.942 697.36592,1368.8657 698.13432,1377.8069 698.86242,1378.7836 699.91372,1377.5674 700.61402,1378.4643 700.93242,1378.8722 700.54512,1380.2961 700.87792,1380.6563 701.36672,1381.1853 702.28012,1379.5906 702.54802,1380.5578 703.88832,1385.3946 699.35042,1385.8942 704.13572,1383.9846 704.81522,1386.8962 706.42672,1383.9503 707.29712,1385.1942 707.77072,1385.8709 707.30472,1387.6009 707.58322,1388.6174 708.22362,1390.9546 710.12662,1391.8327 711.28662,1392.2171 713.32562,1392.2667 712.44412,1396.2738 713.55642,1397.939 713.97932,1398.5719 714.71382,1397.5899 715.14072,1398.2123 716.79162,1400.6194 713.15282,1402.5903 717.01372,1399.1635 715.68892,1407.1315 716.62292,1398.8071 717.92282,1401.2335 718.26112,1401.8649 717.16742,1402.9035 717.34922,1403.751 718.06832,1407.1041 719.45652,1399.3672 718.92172,1405.2509 719.50452,1404.2144 720.29852,1403.5074 720.67002,1402.1416 722.30352,1396.1356 716.74942,1409.1178 719.02642,1405.3656 722.47802,1399.6783 714.40312,1400.9924 716.78382,1402.201 716.60272,1399.7217 718.37862,1400.916 718.58042,1400.4222 718.85702,1399.7457 718.25522,1397.7431 718.69292,1397.8203 721.57362,1398.3288 721.07792,1405.7899 720.84602,1395.8916 721.32762,1396.2418 724.78442,1399.8118 725.70002,1397.1036 728.26512,1389.5162 723.16802,1392.943 727.45222,1388.0081 728.23752,1387.1036 729.21612,1387.1081 730.06102,1386.4469 730.93662,1385.7615 731.75152,1384.8035 732.59682,1383.9818 735.53972,1380.0367 738.92072,1377.354 741.71182,1372.9422 742.76672,1371.275 743.58942,1369.0806 744.64402,1367.4129 753.53462,1353.3536 742.88192,1372.6551 751.45262,1356.5829 755.67932,1353.1108 759.22432,1345.3157 763.27822,1341.4855 764.80102,1340.0468 766.58782,1339.9407 768.10992,1338.4988 779.67912,1327.5396 763.79462,1338.3665 776.29642,1330.5938 780.70352,1326.8141 784.53982,1321.3382 788.62052,1316.47 789.49252,1315.0499 799.63132,1339.4797 798.75922,1340.8998 L 798.75922,1340.8998 C 797.85872,1341.8615 797.05872,1343.3674 796.05752,1343.7849 794.65182,1344.3711 793.00402,1342.442 791.74822,1343.8235 789.49462,1346.3026 790.60772,1356.303 786.24882,1354.593 785.04852,1356.1765 783.77702,1357.5667 782.64782,1359.3437 781.50802,1361.1373 780.85762,1364.4256 779.46542,1365.2676 777.51652,1366.4463 775.11222,1362.9228 773.35432,1364.9641 771.86042,1366.6989 772.60912,1371.9709 771.46922,1374.5531 771.32342,1374.8833 763.31532,1382.5475 763.10202,1382.753 757.33912,1394.6574 763.66092,1384.3086 754.88082,1389.4168 747.54892,1393.6826 754.99052,1393.2118 748.94942,1399.3169 743.10192,1405.2264 745.73172,1394.073 743.95032,1407.3216 740.30502,1411.691 742.29972,1410.255 737.93712,1411.4671 737.20302,1412.2094 736.96942,1414.1112 736.46202,1415.3979 734.79882,1419.6153 733.52312,1421.0154 730.76732,1421.2391 728.96492,1422.3912 728.95712,1421.8401 727.72242,1424.8076 727.31822,1425.7789 727.28912,1427.6057 726.68092,1427.9705 724.17092,1429.4757 723.79462,1421.3409 722.33552,1430.0228 721.79592,1429.2887 721.37132,1427.8289 720.71672,1427.8206 718.99472,1427.7986 717.36212,1429.39 715.66242,1429.9376 715.32332,1430.0468 714.91582,1430.1713 714.63482,1429.7796 714.19522,1429.1668 714.12712,1427.8117 713.69082,1427.1895 712.74752,1425.8442 712.12742,1426.0465 711.16632,1426.0672 707.85562,1425.9223 710.60062,1417.6929 706.20602,1420.8294 705.03672,1414.8964 704.58302,1420.9349 703.53512,1418.2734 703.34892,1417.8006 703.63182,1416.97 703.45642,1416.4812 701.89042,1412.1173 702.38572,1419.9515 702.47302,1411.2232 701.81572,1411.1977 701.15852,1411.1516 700.50102,1411.1468 699.92802,1411.1425 699.25412,1411.8396 698.78222,1411.1956 698.38482,1410.6532 698.79952,1409.1092 698.48142,1408.3901 697.32602,1405.7775 695.28642,1409.9776 695.30472,1404.6322 691.12112,1405.1004 695.77532,1405.3691 692.64362,1402.9638 692.23262,1402.6482 691.70672,1403.4534 691.32172,1403.0283 690.96562,1402.6354 691.11472,1401.2645 690.75612,1400.8805 690.45572,1400.5589 689.98022,1401.8738 689.76032,1401.3565 689.39302,1400.4927 689.60752,1399.1184 689.53112,1397.9992 689.02942,1398.2207 688.53432,1398.8139 688.02602,1398.6634 687.71382,1398.5709 687.63822,1397.6003 687.34832,1397.3528 687.03832,1397.0881 686.58582,1397.6754 686.33772,1397.2219 686.03102,1396.6613 686.20442,1395.5408 685.97752,1394.8471 683.73152,1387.9801 686.51082,1399.7819 684.73292,1391.6669 681.09892,1396.0882 682.33542,1396.7618 681.94412,1392.4835 681.83882,1391.3319 681.31442,1390.4263 681.63862,1389.0934 681.77162,1388.547 684.45082,1388.8296 681.21782,1390.711 680.37422,1389.7507 687.23052,1366.1181 688.07412,1367.0784 z"
     id="path6909"
     style="opacity:0.78754578;fill:#339900;fill-opacity:1;stroke:none" />
  <g
     transform="matrix(0.90620929,0,0,0.90620929,-660.56512,67.53828)"
     style="fill:#980101"
     id="g6911">
    <path
       style="opacity:0.78754578;fill:#980101;fill-opacity:1;stroke:none"
       id="path6913"
       d="M 1520.0745,786.7765 C 1521.1712,786.93731 1522.4234,786.67354 1523.3647,787.2589 1523.7517,787.49955 1522.857,788.11009 1522.9397,788.55824 1523.0819,789.33003 1523.3921,790.15861 1523.9925,790.66412 1525.7153,792.11484 1530.0357,792.225 1532.17,792.95216 1532.1123,796.77576 1534.0647,797.16885 1536.2717,799.5904 1540.2533,803.95907 1539.289,804.23309 1545.6094,805.57888 1545.4406,807.21893 1544.2124,809.11145 1545.1029,810.49903 1545.9444,811.8103 1548.2495,811.0047 1549.5953,811.7899 1556.1344,815.60527 1548.8935,813.40646 1553.5248,818.11511 1563.777,828.53876 1551.4606,810.54086 1559.6759,823.517 1560.5794,824.35547 1561.2199,825.63377 1562.3863,826.03241 1564.2859,826.68169 1566.7289,825.36995 1568.391,826.49574 1569.4854,827.23696 1568.4179,829.19248 1568.8802,830.43076 1569.2663,831.46477 1570.3454,832.11001 1570.8531,833.09003 1574.6188,840.3585 1569.5874,833.60661 1574.23,839.30287 1583.3584,841.39767 1577.4364,841.12116 1579.3404,844.66627 1579.8337,845.58489 1581.1069,846.07939 1582.149,846.0435 1583.9572,845.98123 1585.702,843.58034 1587.3192,844.3915 1588.4599,844.9636 1586.4862,846.80381 1586.0696,848.00997 1589.4504,847.58149 1587.7751,847.12838 1590.1875,849.64525 1590.718,850.19879 1591.5024,850.5551 1591.8432,851.24194 1593.3712,854.32126 1590.9438,854.49133 1595.663,855.22276 1594.9194,856.47737 1592.9392,857.61415 1593.4323,858.98662 1596.0552,866.28596 1597.1131,854.85392 1599.4222,858.59301 1599.894,859.35695 1597.5418,860.38771 1598.2031,860.995 1601.5487,864.06703 1602.0933,854.22906 1600.5469,863.62687 1599.0321,866.97581 1604.9007,863.63463 1605.7954,866.4922 1606.7227,869.45385 1602.5914,869.86959 1605.5251,869.35832 1607.3337,869.62853 1606.4106,871.6521 1607.2905,872.44726 1607.5653,872.69559 1608.0227,872.26647 1608.3916,872.29861 1612.3952,872.6474 1612.4666,870.20757 1609.4598,876.68598 1617.4777,873.78242 1617.736,872.99732 1611.85,877.34562 1612.8755,878.66618 1594.2,893.16953 1593.1744,891.84897 L 1593.1744,891.84897 C 1590.1251,891.32759 1591.4309,891.40174 1589.2771,891.39401 1593.4849,887.30359 1592.2561,889.64829 1589.4623,888.92044 1588.8397,888.75823 1588.4019,888.18515 1587.8301,887.8901 1584.7531,886.30224 1585.0124,886.67367 1586.2497,883.68928 1584.9777,883.68405 1583.6966,883.5231 1582.4334,883.6736 1581.6141,883.7712 1580.8707,884.64326 1580.075,884.42491 1579.5604,884.28367 1581.4255,883.86122 1581.2639,883.35262 1581.0848,882.78923 1579.7481,883.39462 1579.5687,882.83135 1577.3926,875.99866 1583.0313,883.41469 1578.9551,878.65661 1578.4341,878.35114 1578.418,877.48915 1577.8948,877.18729 1575.745,875.94679 1575.6497,877.89887 1574.0768,875.53556 1573.9358,875.32376 1574.5968,875.06323 1574.439,874.8637 1574.1172,874.45712 1573.4981,874.42778 1573.0277,874.20981 1567.3034,872.94299 1573.9478,871.12388 1571.4442,868.8863 1570.8755,868.37803 1565.8875,868.8338 1565.2743,865.5115 1564.7981,864.86938 1564.1954,864.30406 1563.8458,863.58513 1563.4308,862.73173 1563.9505,861.01379 1563.0137,860.86259 1561.1944,860.56895 1559.2958,863.63223 1557.7665,862.60393 1556.4845,861.74189 1559.648,859.48733 1558.9323,858.11822 1558.7246,857.72103 1551.6894,856.76025 1551.2465,856.69433 1543.1067,849.1943 1555.6538,861.67356 1548.9967,851.15903 1547.7427,849.17851 1542.8958,848.6085 1540.3246,844.00752 1539.6411,842.78444 1539.1077,841.48332 1538.4993,840.22123 1536.375,840.37988 1533.7276,842.10223 1532.1266,840.69718 1530.6918,839.43808 1533.2329,836.76066 1532.5325,834.98493 1530.7498,830.46548 1527.0519,834.066 1524.6093,830.74706 1523.7229,829.54261 1524.9681,827.62411 1524.3355,826.26901 1523.82,825.16467 1522.4205,824.76098 1521.463,824.00696 1520.568,823.30342 1519.2493,822.93257 1518.7779,821.89632 1518.411,821.08965 1519.4946,816.20006 1517.6305,815.36068 1511.8592,812.76201 1514.3287,818.26037 1508.3142,811.12771 1508.0016,810.98149 1503.3832,807.95673 1503.357,807.73824 1503.3554,807.72514 1506.5893,803.20333 1502.9349,804.66659 1502.021,805.03252 1501.8436,806.30532 1501.298,807.12469 1499.8591,805.79698 1518.6357,785.4488 1520.0745,786.7765 z"
       inkscape:connector-curvature="0" />
    <path
       style="opacity:0.78754578;fill:#980101;fill-opacity:1;stroke:none"
       id="path6915"
       d="M 1504.9203,885.93979 C 1504.0129,885.3097 1499.8079,882.72145 1500.5524,881.30509 1501.1616,880.1462 1503.3991,882.25879 1504.4747,881.51237 1505.1946,881.01283 1503.9834,879.80842 1503.9718,878.93228 1503.9592,877.98367 1505.2445,875.50352 1505.4952,874.95515 1509.3776,870.40938 1506.4563,874.87332 1507.5497,869.85953 1507.7696,868.85124 1508.6081,868.02797 1508.7503,867.00581 1508.9325,865.69507 1507.5364,863.95338 1508.4976,863.04378 1521.9881,850.27742 1509.0397,870.7915 1516.1232,858.5471 1525.8904,856.10177 1520.6135,851.97311 1522.9114,848.92956 1523.8492,847.68741 1526.3489,848.31658 1527.1571,846.98648 1527.9081,845.75062 1526.5227,844.10403 1526.7147,842.67068 1526.8879,841.37675 1527.7177,840.26009 1528.2192,839.05479 1531.5893,838.57065 1536.8431,838.37764 1538.459,834.47982 1540.2839,830.07798 1536.4449,832.39872 1542.1059,827.41931 1542.7402,827.06997 1543.8877,827.08524 1544.0089,826.37128 1544.1903,825.3032 1542.2212,824.2743 1542.796,823.35595 1543.4799,822.26324 1545.3737,822.91751 1546.5287,822.34506 1548.7182,821.25986 1549.4595,818.34686 1550.0706,816.2668 1552.3948,815.79257 1552.4529,812.90988 1553.7556,811.71523 1554.3032,811.21313 1555.3026,811.4331 1555.8361,810.9162 1558.9466,807.90292 1553.188,809.97444 1558.3985,808.645 1557.9526,804.52127 1558.6426,805.81892 1561.2933,804.53879 1561.8213,804.28381 1562.061,803.63272 1562.5474,803.30522 1564.0253,802.31005 1565.8242,802.20633 1567.5079,801.87316 1567.7362,801.16284 1568.1244,800.48517 1568.1928,799.74221 1568.2769,798.82954 1567.5314,797.81458 1567.9568,797.00276 1568.9833,795.04394 1574.5092,797.81296 1574.3992,792.82167 1575.6254,788.4229 1572.9486,796.33938 1579.7222,794.11792 1581.0248,793.6907 1577.7727,791.87143 1577.7654,790.50055 1577.762,789.84325 1579.2203,790.57228 1579.7011,790.12412 1580.0131,789.83333 1580.0596,786.96831 1580.0727,786.66064 1585.4036,783.17614 1575.679,789.23467 1583.0744,785.93264 1583.413,785.78148 1583.1206,784.86072 1583.4892,784.90051 1584.6664,785.02756 1585.9008,787.1622 1586.7415,786.32845 1588.6008,784.48441 1580.9237,782.29555 1586.8654,784.33573 1586.5413,784.47125 1585.7579,784.41824 1585.8933,784.74227 1588.3687,790.66329 1586.7827,777.20374 1584.0399,786.31793 1583.0929,789.46476 1590.6347,786.979 1582.9947,788.66272 1583.2874,788.77124 1583.58,788.87976 1583.8726,788.98828 1583.7532,786.96216 1612.4068,785.27336 1612.5262,787.29948 L 1612.5262,787.29948 C 1613.5264,787.71976 1614.5265,788.14004 1615.5266,788.56032 1600.2503,793.73577 1616.88,786.43099 1613.534,793.39445 1612.7094,795.1105 1609.2395,793.75191 1608.1558,795.31729 1607.5077,796.25344 1610.4443,796.70684 1610.4527,797.8454 1610.4639,799.35483 1605.0573,797.05101 1607.0503,800.83372 1606.995,801.7685 1608.6724,803.23317 1607.7891,803.54408 1606.8455,803.87622 1605.9793,802.50309 1604.979,802.49057 1604.6078,802.48592 1604.886,803.48198 1604.5153,803.5031 1601.1223,803.69647 1599.7194,799.7548 1604.0337,806.3949 1597.1575,805.91925 1601.3241,807.0405 1599.3875,808.87822 1598.8039,809.43215 1597.6738,808.88925 1597.0223,809.36162 1593.5798,811.85774 1601.9156,812.64654 1592.1147,809.96665 1592.6935,811.74332 1593.9809,813.43258 1593.8512,815.29666 1593.8025,815.99585 1592.3806,814.78805 1591.757,815.1079 1591.3546,815.31425 1592.0451,816.43176 1591.5934,816.45454 1588.3605,816.61766 1585.5979,813.03017 1585.1213,815.28361 1584.8508,816.5623 1586.3992,817.56389 1587.0382,818.70403 1587.2412,821.25087 1584.872,819.82947 1583.4905,821.25278 1582.1837,822.59906 1583.5007,824.98259 1580.5705,825.13345 1579.4913,829.62603 1574.7976,828.08195 1574.3885,829.14074 1574.0233,830.0862 1575.2459,831.0127 1575.37,832.01863 1575.4544,832.70261 1575.1196,833.37401 1574.9944,834.05171 1571.183,835.47024 1573.1663,836.85239 1571.1923,838.04463 1568.0911,839.91766 1564.9994,836.96024 1565.5763,843.16038 1563.2311,845.24402 1563.5415,844.55113 1562.1756,847.52916 1561.7183,848.52643 1561.8463,849.93283 1560.9687,850.59137 1558.5032,852.44161 1553.9295,849.73988 1552.0338,855.76553 1551.1367,856.39241 1549.3803,856.55234 1549.3423,857.64616 1549.2636,859.90907 1554.5893,864.32923 1549.6709,865.93279 1547.7103,866.57203 1545.3649,865.50228 1543.5007,866.38413 1541.5451,867.30922 1543.412,871.67184 1541.4014,872.52531 1541.0407,872.66523 1535.2483,874.38727 1535.3103,876.09129 1535.3691,877.70534 1538.0015,878.61993 1537.8357,880.22652 1537.7187,881.36007 1535.6638,881.00611 1534.735,881.66644 1533.2824,882.69927 1532.6034,884.0794 1531.7377,885.52046 1530.3627,885.65853 1528.2258,884.69619 1527.6127,885.93467 1527.0262,887.11982 1529.3388,887.9688 1529.944,889.14457 1530.1261,889.49849 1529.7882,889.94929 1529.8786,890.33693 1530.0496,891.07026 1531.1813,891.84793 1530.7118,892.43668 1530.2841,892.97314 1529.1745,891.1376 1528.788,891.70453 1528.4106,892.25817 1529.8226,892.55636 1530.3399,892.98227 1529.8419,894.77971 1504.4223,887.73723 1504.9203,885.93979 z"
       inkscape:connector-curvature="0" />
  </g>
</svg>
